<?xml version="1.0"?>
<svg version="1.1" xmlns="http://www.w3.org/2000/svg" width="200" height="200" style=""><path fill="#000000" d="M15.833984375,110.3359375q0-0.615234375,0.0615234375-1.4697265625t0.2802734375-1.4150390625q0.08203125-0.19140625,0.3486328125-0.3759765625t0.560546875-0.2255859375t0.51953125,0.068359375t0.2255859375,0.478515625q0,0.642578125-0.02734375,1.626953125l0,0.423828125q0,0.751953125,0.068359375,1.435546875q0.095703125,0.90234375,0.41015625,1.517578125q0.2734375,0.560546875,0.861328125,0.560546875l0.109375,0q0.806640625-0.0546875,1.189453125-0.669921875t0.51953125-1.462890625q0.123046875-0.779296875,0.123046875-1.640625l0-0.1640625q-0.013671875-0.95703125-0.013671875-1.681640625q0-2.884765625-0.19140625-5.783203125t-0.19140625-5.810546875q0-0.478515625-0.041015625-1.0390625q-0.013671875-0.205078125-0.013671875-0.41015625q0-0.328125,0.041015625-0.62890625q0.068359375-0.478515625,0.3486328125-0.7998046875t0.9501953125-0.3212890625q0.369140625,0,0.6767578125,0.0888671875t0.5537109375,0.3623046875q0.314453125,3.5546875,0.51953125,7.2255859375t0.205078125,7.2529296875q0,1.23046875-0.205078125,2.474609375t-0.751953125,2.2421875t-1.517578125,1.626953125t-2.474609375,0.62890625q-0.90234375,0-1.50390625-0.3212890625t-0.9638671875-0.8818359375t-0.51953125-1.3056640625t-0.1572265625-1.6064453125z M26.72595703125,108.900390625q0-0.9296875,0.2529296875-1.791015625t0.7587890625-1.5380859375t1.2646484375-1.080078125t1.7568359375-0.4033203125q0.615234375,0,1.3603515625,0.1845703125t1.4013671875,0.546875t1.09375,0.9228515625t0.4375,1.28515625q0,0.341796875-0.1162109375,0.51953125t-0.4716796875,0.177734375l-0.150390625-0.02734375q0.396484375,1.06640625,0.68359375,2.1875t0.560546875,2.2421875q0.109375,0.21875,0.1640625,0.3896484375t0.0546875,0.3349609375q0,0.21875-0.123046875,0.3623046875t-0.3212890625,0.2119140625t-0.41015625,0.095703125t-0.3759765625,0.02734375q-0.587890625,0-0.8818359375-0.205078125t-0.423828125-0.560546875t-0.1572265625-0.7998046875t-0.109375-0.8955078125q-0.1640625,0.533203125-0.4306640625,1.0390625t-0.62890625,0.9091796875t-0.8544921875,0.642578125t-1.107421875,0.2392578125q-0.90234375,0-1.517578125-0.51953125t-0.9912109375-1.2783203125t-0.546875-1.6201171875t-0.1708984375-1.599609375z M28.66736328125,108.708984375q0,0.505859375,0.068359375,1.06640625t0.2255859375,1.107421875t0.4033203125,1.0322265625t0.615234375,0.8544921875q0.669921875-0.724609375,0.9912109375-1.763671875t0.57421875-2.0029296875t0.57421875-1.654296875t0.9912109375-0.6904296875q0.423828125,0,0.7109375,0.150390625q-0.13671875-0.341796875-0.451171875-0.6630859375t-0.7041015625-0.587890625t-0.806640625-0.4375t-0.7861328125-0.1708984375q-0.109375,0-0.2529296875,0.0341796875t-0.2255859375,0.0068359375q-0.560546875,0.1640625-0.9228515625,0.5673828125t-0.587890625,0.9501953125t-0.3212890625,1.12109375t-0.095703125,1.080078125z M38.5749609375,108.626953125q0-0.984375,0.2529296875-1.9755859375t0.7861328125-1.77734375t1.3603515625-1.2783203125t1.9482421875-0.4921875q0.478515625,0,1.052734375,0.1162109375t1.0595703125,0.369140625t0.8203125,0.65625t0.3349609375,0.9912109375q0,0.369140625-0.19140625,0.4921875t-0.505859375,0.123046875l-0.095703125-0.13671875t-0.2666015625-0.3486328125t-0.3623046875-0.451171875t-0.369140625-0.4033203125q-0.560546875-0.560546875-1.052734375-0.6015625l-0.109375,0q-0.41015625,0-0.765625,0.24609375q-0.396484375,0.30078125-0.7041015625,0.84765625t-0.5126953125,1.162109375t-0.3212890625,1.244140625t-0.1162109375,1.0390625q0,0.560546875,0.1298828125,1.2783203125t0.4375,1.3603515625t0.779296875,1.080078125t1.2099609375,0.4375q0.669921875,0,1.216796875-0.328125t1.0458984375-0.7314453125t0.9775390625-0.724609375t0.984375-0.3212890625q0.21875,0,0.4443359375,0.0546875t0.2255859375,0.287109375l0,0.08203125q-0.24609375,0.642578125-0.833984375,1.134765625t-1.3193359375,0.8544921875t-1.517578125,0.5400390625t-1.4013671875,0.177734375q-1.1484375,0-2.0166015625-0.3759765625t-1.4423828125-1.0322265625t-0.8681640625-1.5791015625t-0.2939453125-2.0166015625z M50.23255859375,109.16015625q0-0.779296875,0.1982421875-1.6064453125t0.62890625-1.490234375t1.0869140625-1.080078125t1.5859375-0.4169921875q0.697265625,0,1.4697265625,0.2392578125t1.4150390625,0.68359375t1.0458984375,1.0869140625t0.4033203125,1.435546875q0,0.95703125-0.3486328125,1.818359375t-0.9775390625,1.5380859375t-1.4697265625,1.06640625t-1.8251953125,0.3896484375q-0.806640625,0-1.408203125-0.2939453125t-1.0048828125-0.7861328125t-0.6015625-1.162109375t-0.1982421875-1.421875z M52.24232421875,109.1328125q0,0.24609375,0.0751953125,0.724609375t0.2255859375,0.9365234375t0.3896484375,0.79296875t0.5810546875,0.3076171875q0.724609375-0.08203125,1.1962890625-0.4716796875t0.765625-0.9501953125t0.41015625-1.216796875t0.1162109375-1.244140625q0-0.751953125-0.2939453125-1.2578125t-0.9638671875-0.8203125q0,0.02734375,0.02734375,0.02734375t0.02734375-0.02734375l-0.341796875-0.08203125q-0.13671875-0.0546875-0.3349609375-0.123046875t-0.3896484375-0.30078125q-0.533203125,0.19140625-0.8271484375,0.4921875t-0.4443359375,0.7314453125t-0.1845703125,1.0322265625t-0.0341796875,1.44921875z M60.591328125,104.921875q0-0.95703125,0.0888671875-2.48828125t0.2119140625-3.158203125t0.3076171875-3.0830078125t0.4033203125-2.2353515625q0.08203125-0.341796875,0.3896484375-0.41015625t0.6220703125-0.068359375q0.423828125,0,0.7314453125,0.150390625t0.3076171875,0.65625q0,2.48828125-0.3076171875,4.9833984375t-0.3349609375,4.9833984375q0.423828125-0.642578125,1.09375-0.9638671875t1.421875-0.3212890625q1.0390625,0,1.791015625,0.423828125t1.216796875,1.09375t0.6904296875,1.5517578125t0.2255859375,1.7978515625q0,0.505859375-0.1025390625,1.2646484375t-0.3076171875,1.599609375t-0.51953125,1.66796875t-0.7451171875,1.4833984375t-0.9912109375,1.0595703125t-1.23046875,0.4033203125q-0.13671875,0-0.3623046875-0.041015625t-0.451171875-0.123046875t-0.3759765625-0.2119140625t-0.150390625-0.3212890625q0-0.21875,0.2666015625-0.3076171875t0.4306640625-0.0888671875q0.615234375-0.2734375,1.09375-1.1416015625t0.7998046875-1.9072265625t0.4853515625-2.0576171875t0.1640625-1.6611328125q0-0.369140625-0.109375-0.984375t-0.3349609375-1.216796875t-0.615234375-1.0390625t-0.9228515625-0.4375q-0.642578125,0-1.025390625,0.6630859375t-0.6015625,1.544921875t-0.2939453125,1.818359375t-0.0751953125,1.4697265625q0,0.341796875,0.1162109375,0.6767578125t0.2666015625,0.669921875t0.2666015625,0.68359375t0.1162109375,0.6904296875q0,0.1640625-0.1435546875,0.2734375t-0.3349609375,0.177734375t-0.4033203125,0.0888671875t-0.3212890625,0.0205078125q-0.779296875,0-1.080078125-0.369140625t-0.51953125-1.0390625q-0.478515625-1.517578125-0.6630859375-3.0830078125t-0.1845703125-3.1376953125z"/><path fill="#16e0bd" d="M76.96865234375,107.576171875q-0.0087890625-0.263671875-0.0087890625-0.52734375q0-0.826171875,0.087890625-1.6611328125q0.10546875-1.107421875,0.140625-2.1796875q0.03515625-1.2568359375,0.10546875-2.6103515625q0.0439453125-0.73828125,0.0439453125-1.458984375q0-0.5888671875-0.0263671875-1.1689453125q0.087890625-0.2021484375,0.23291015625-0.2724609375t0.36474609375-0.0703125q0.10546875,0,0.22412109375,0.017578125t0.20654296875,0.087890625q0.123046875,0.017578125,0.30322265625,0.03515625t0.27685546875,0.10546875q0.03515625,0.052734375,0.18017578125,0.3603515625t0.3427734375,0.7470703125t0.4130859375,0.95361328125t0.4130859375,0.9755859375t0.3427734375,0.81298828125t0.18017578125,0.439453125q0.826171875-1.494140625,1.6171875-3.07177734375t1.7314453125-2.97509765625q0.087890625-0.123046875,0.30322265625-0.18017578125t0.35595703125-0.05712890625q0.3779296875,0,0.54931640625,0.18017578125t0.22412109375,0.46142578125q0.03515625,0.17578125,0.0439453125,0.3779296875q0.0087890625,0.10546875-0.0087890625,0.2197265625q-0.03515625,0.3251953125-0.03515625,0.615234375q0,2.0478515625-0.140625,4.06494140625t-0.2548828125,4.07373046875q-0.017578125,0.421875-0.017578125,0.87890625t0.017578125,0.94921875q0.0087890625,0.17578125,0.0087890625,0.3427734375q0,0.7734375-0.1318359375,1.44140625q-0.123046875,0.2021484375-0.404296875,0.2548828125t-0.474609375,0.052734375q-0.4130859375,0-0.791015625-0.193359375l-0.0966796875-0.1142578125l-0.03515625-0.140625t-0.017578125-0.140625q0-1.2744140625,0.09228515625-2.56640625t0.20654296875-2.57958984375t0.24169921875-2.57080078125t0.21533203125-2.56640625q-0.5185546875,0.861328125-1.00634765625,1.75341796875t-0.91845703125,1.81494140625q-0.158203125,0.3603515625-0.30322265625,0.7734375t-0.34716796875,0.73828125q-0.10546875,0.158203125-0.35595703125,0.193359375t-0.43505859375,0.03515625q-0.17578125,0-0.36474609375-0.0615234375t-0.25927734375-0.263671875q-0.3251953125-0.9931640625-0.6943359375-1.9423828125t-0.7470703125-1.9248046875q0,0.650390625,0.0263671875,1.68310546875t0.0263671875,2.14013671875t-0.03515625,2.1181640625t-0.1669921875,1.599609375q-0.03515625,0.2197265625-0.28564453125,0.2724609375t-0.43505859375,0.052734375q-0.140625,0-0.26806640625-0.017578125t-0.25048828125-0.0703125z M87.407158203125,105.5458984375q0-0.6328125,0.16259765625-1.27001953125t0.50537109375-1.142578125t0.87451171875-0.82177734375t1.25244140625-0.31640625q0.3076171875,0,0.6767578125,0.07470703125t0.68115234375,0.2373046875t0.52734375,0.421875t0.21533203125,0.63720703125q0,0.2373046875-0.123046875,0.31640625t-0.3251953125,0.0791015625l-0.0615234375-0.087890625t-0.17138671875-0.22412109375t-0.23291015625-0.2900390625t-0.2373046875-0.25927734375q-0.3603515625-0.3603515625-0.6767578125-0.38671875l-0.0703125,0q-0.263671875,0-0.4921875,0.158203125q-0.2548828125,0.193359375-0.45263671875,0.544921875t-0.32958984375,0.7470703125t-0.20654296875,0.7998046875t-0.07470703125,0.66796875q0,0.3603515625,0.08349609375,0.82177734375t0.28125,0.87451171875t0.5009765625,0.6943359375t0.77783203125,0.28125q0.4306640625,0,0.7822265625-0.2109375t0.67236328125-0.47021484375t0.62841796875-0.4658203125t0.6328125-0.20654296875q0.140625,0,0.28564453125,0.03515625t0.14501953125,0.1845703125l0,0.052734375q-0.158203125,0.4130859375-0.5361328125,0.7294921875t-0.84814453125,0.54931640625t-0.9755859375,0.34716796875t-0.90087890625,0.1142578125q-0.73828125,0-1.29638671875-0.24169921875t-0.92724609375-0.66357421875t-0.55810546875-1.01513671875t-0.18896484375-1.29638671875z M95.077109375,106.1962890625q0-1.9072265625,0.17138671875-3.81884765625t0.71630859375-3.76611328125q0.158203125-0.5537109375,0.4130859375-1.09423828125t0.6240234375-0.96240234375t0.87890625-0.685546875t1.212890625-0.263671875l0.1845703125,0.017578125q0.755859375,0.10546875,1.1162109375,0.61083984375t0.3603515625,1.26123046875q0,0.2021484375-0.04833984375,0.50537109375t-0.15380859375,0.58447265625t-0.28564453125,0.47900390625t-0.45263671875,0.19775390625q-0.123046875-0.017578125-0.22412109375-0.0439453125t-0.18896484375-0.1142578125q0.140625-0.3076171875,0.25048828125-0.6416015625t0.10986328125-0.7646484375q0-0.158203125-0.0263671875-0.404296875t-0.10107421875-0.48779296875t-0.19775390625-0.421875t-0.3427734375-0.18017578125q-0.5537109375,0-0.931640625,0.61962890625t-0.6328125,1.58203125t-0.3779296875,2.126953125t-0.18896484375,2.25t-0.07470703125,1.9599609375t-0.0087890625,1.23486328125q0,0.421875-0.0087890625,0.931640625l0,0.1142578125q0.0087890625,0.4482421875,0.0615234375,0.8525390625q0.0703125,0.45703125,0.2724609375,0.791015625t0.6328125,0.38671875q0.1318359375,0.017578125,0.2548828125,0.017578125q0.509765625,0,0.9228515625-0.2900390625q0.509765625-0.3603515625,0.9052734375-0.93603515625t0.703125-1.265625t0.56689453125-1.30517578125t0.50537109375-1.01953125t0.509765625-0.404296875q0.087890625,0,0.263671875,0.03515625t0.17578125,0.1669921875q0,0.03515625-0.017578125,0.0966796875t-0.0439453125,0.0966796875q-0.2373046875,0.931640625-0.60205078125,1.93359375t-0.931640625,1.82373046875t-1.388671875,1.34033203125t-1.97314453125,0.5185546875q-0.826171875,0-1.34033203125-0.31201171875t-0.791015625-0.8349609375t-0.3779296875-1.18212890625t-0.10107421875-1.3359375z M104.44334960938,103.2607421875q0-0.3603515625,0.12744140625-0.6064453125t0.54052734375-0.24609375q0.158203125,0,0.3955078125,0.04833984375t0.2724609375,0.24169921875q0.087890625,0.5185546875,0.0966796875,1.125t0.0615234375,1.142578125q0.2021484375-0.3955078125,0.5185546875-0.8525390625t0.720703125-0.84375t0.87890625-0.6416015625t0.966796875-0.2548828125q0.03515625,0,0.1318359375,0.0263671875t0.18017578125,0.07470703125t0.10107421875,0.10986328125t-0.0966796875,0.1142578125q-0.03515625,0.10546875-0.1494140625,0.12744140625t-0.2021484375,0.02197265625q-0.052734375,0-0.1669921875-0.0439453125q-0.650390625,0.3427734375-1.107421875,0.931640625t-0.7470703125,1.30517578125t-0.421875,1.51171875t-0.1318359375,1.55126953125q0,0.3779296875-0.17138671875,0.45703125t-0.54931640625,0.0791015625q-0.2021484375,0-0.42626953125-0.0439453125t-0.31201171875-0.28125q-0.158203125-0.5009765625-0.25927734375-1.1513671875t-0.15380859375-1.34033203125t-0.07470703125-1.35791015625t-0.02197265625-1.2041015625z M110.68947265625,105.7216796875q0-0.59765625,0.16259765625-1.1513671875t0.48779296875-0.98876953125t0.81298828125-0.6943359375t1.12939453125-0.25927734375q0.3955078125,0,0.87451171875,0.11865234375t0.90087890625,0.3515625t0.703125,0.59326171875t0.28125,0.826171875q0,0.2197265625-0.07470703125,0.333984375t-0.30322265625,0.1142578125l-0.0966796875-0.017578125q0.2548828125,0.685546875,0.439453125,1.40625t0.3603515625,1.44140625q0.0703125,0.140625,0.10546875,0.25048828125t0.03515625,0.21533203125q0,0.140625-0.0791015625,0.23291015625t-0.20654296875,0.13623046875t-0.263671875,0.0615234375t-0.24169921875,0.017578125q-0.3779296875,0-0.56689453125-0.1318359375t-0.2724609375-0.3603515625t-0.10107421875-0.51416015625t-0.0703125-0.57568359375q-0.10546875,0.3427734375-0.27685546875,0.66796875t-0.404296875,0.58447265625t-0.54931640625,0.4130859375t-0.7119140625,0.15380859375q-0.580078125,0-0.9755859375-0.333984375t-0.63720703125-0.82177734375t-0.3515625-1.04150390625t-0.10986328125-1.0283203125z M111.93751953125,105.5986328125q0,0.3251953125,0.0439453125,0.685546875t0.14501953125,0.7119140625t0.25927734375,0.66357421875t0.3955078125,0.54931640625q0.4306640625-0.4658203125,0.63720703125-1.1337890625t0.369140625-1.28759765625t0.369140625-1.0634765625t0.63720703125-0.44384765625q0.2724609375,0,0.45703125,0.0966796875q-0.087890625-0.2197265625-0.2900390625-0.42626953125t-0.45263671875-0.3779296875t-0.5185546875-0.28125t-0.50537109375-0.10986328125q-0.0703125,0-0.16259765625,0.02197265625t-0.14501953125,0.00439453125q-0.3603515625,0.10546875-0.59326171875,0.36474609375t-0.3779296875,0.61083984375t-0.20654296875,0.720703125t-0.0615234375,0.6943359375z M118.30668945313,105.5458984375q0-0.6328125,0.16259765625-1.27001953125t0.50537109375-1.142578125t0.87451171875-0.82177734375t1.25244140625-0.31640625q0.3076171875,0,0.6767578125,0.07470703125t0.68115234375,0.2373046875t0.52734375,0.421875t0.21533203125,0.63720703125q0,0.2373046875-0.123046875,0.31640625t-0.3251953125,0.0791015625l-0.0615234375-0.087890625t-0.17138671875-0.22412109375t-0.23291015625-0.2900390625t-0.2373046875-0.25927734375q-0.3603515625-0.3603515625-0.6767578125-0.38671875l-0.0703125,0q-0.263671875,0-0.4921875,0.158203125q-0.2548828125,0.193359375-0.45263671875,0.544921875t-0.32958984375,0.7470703125t-0.20654296875,0.7998046875t-0.07470703125,0.66796875q0,0.3603515625,0.08349609375,0.82177734375t0.28125,0.87451171875t0.5009765625,0.6943359375t0.77783203125,0.28125q0.4306640625,0,0.7822265625-0.2109375t0.67236328125-0.47021484375t0.62841796875-0.4658203125t0.6328125-0.20654296875q0.140625,0,0.28564453125,0.03515625t0.14501953125,0.1845703125l0,0.052734375q-0.158203125,0.4130859375-0.5361328125,0.7294921875t-0.84814453125,0.54931640625t-0.9755859375,0.34716796875t-0.90087890625,0.1142578125q-0.73828125,0-1.29638671875-0.24169921875t-0.92724609375-0.66357421875t-0.55810546875-1.01513671875t-0.18896484375-1.29638671875z M125.976640625,109.2900390625l0.1845703125-0.2197265625q-0.03515625-1.4765625-0.0791015625-2.9443359375t-0.0439453125-2.91796875q0-1.8017578125,0.21533203125-3.48486328125t0.42626953125-3.44970703125q0.017578125-0.10546875,0.10107421875-0.17138671875t0.20654296875-0.10986328125t0.25048828125-0.0615234375t0.23291015625-0.017578125q0.140625,0,0.3515625,0.052734375t0.421875,0.3076171875q0,0.087890625,0.01318359375,0.15380859375t0.01318359375,0.15380859375q0,0.66796875-0.18017578125,1.4326171875t-0.24169921875,1.4677734375q-0.0703125,0.861328125-0.0966796875,1.705078125t-0.0263671875,1.7138671875l0.017578125,0.7734375q0.17578125-0.2197265625,0.5009765625-0.5625t0.703125-0.66357421875t0.755859375-0.54931640625t0.685546875-0.228515625q0.4658203125,0,0.64599609375,0.263671875t0.18017578125,0.6943359375q0,0.3955078125-0.17138671875,0.826171875t-0.4482421875,0.83935546875t-0.62841796875,0.73388671875t-0.6943359375,0.4833984375q0.4658203125,0.580078125,0.95361328125,1.107421875t1.06787109375,0.9931640625l0,0.2021484375q-0.017578125,0.087890625-0.10986328125,0.1318359375t-0.2021484375,0.0703125t-0.21533203125,0.03955078125t-0.17578125,0.01318359375q-0.4306640625,0-0.83056640625-0.2548828125t-0.7470703125-0.6240234375t-0.65478515625-0.7822265625t-0.5625-0.720703125q0.052734375,1.0107421875,0.11865234375,2.01708984375t0.06591796875,2.01708984375q0,0.123046875-0.10986328125,0.20654296875t-0.2548828125,0.12744140625t-0.29443359375,0.0615234375t-0.24609375,0.017578125q-0.5185546875,0-0.73388671875-0.18896484375t-0.36474609375-0.65478515625z M127.7783984375,105.150390625q0.2197265625,0,0.52294921875-0.18896484375t0.62841796875-0.47021484375t0.6064453125-0.59326171875t0.45263671875-0.59326171875t0.17138671875-0.45263671875t-0.2373046875-0.15380859375q-0.087890625,0-0.3603515625,0.2548828125t-0.6064453125,0.6240234375t-0.66796875,0.7998046875t-0.509765625,0.7734375z M133.09288085938,106.08203125q0-0.615234375,0.13623046875-1.4501953125t0.46142578125-1.58203125t0.85693359375-1.27001953125t1.34033203125-0.52294921875q0.755859375,0,1.1337890625,0.43505859375t0.3779296875,1.17333984375q0,0.4833984375-0.18017578125,1.05908203125t-0.51416015625,1.08984375t-0.791015625,0.85693359375t-1.01953125,0.3427734375l-0.228515625-0.017578125q0,0.2373046875,0.0703125,0.63720703125t0.20654296875,0.79541015625t0.3515625,0.6943359375t0.52294921875,0.298828125q0.4482421875,0,0.861328125-0.3603515625t0.7822265625-0.7998046875t0.685546875-0.7998046875t0.580078125-0.3603515625q0.140625,0,0.2900390625,0.0439453125t0.1669921875,0.24609375q0,0.123046875-0.06591796875,0.2021484375t-0.11865234375,0.17578125q-0.2724609375,0.4658203125-0.59326171875,0.8876953125t-0.72509765625,0.7646484375t-0.88330078125,0.54052734375t-1.05908203125,0.19775390625q-0.755859375,0-1.2568359375-0.26806640625t-0.80859375-0.720703125t-0.44384765625-1.0458984375t-0.13623046875-1.24365234375z M134.66612304688,105.4140625l0.24609375,0.2197265625q0.17578125,0.158203125,0.3515625,0.0703125t0.31640625-0.32080078125t0.25927734375-0.57568359375t0.2109375-0.703125t0.13623046875-0.703125t0.0439453125-0.5712890625l0-0.298828125t-0.0263671875-0.31640625t-0.09228515625-0.25048828125t-0.20654296875-0.12744140625q-0.0439453125-0.0087890625-0.0791015625-0.0087890625q-0.298828125,0-0.509765625,0.3779296875q-0.228515625,0.421875-0.369140625,1.02392578125t-0.2021484375,1.23486328125t-0.0791015625,0.94921875z M140.44642578125,105.765625l0-0.2548828125q0-0.31640625,0.017578125-0.59765625q0.017578125-0.3955078125,0.017578125-0.650390625q0-0.140625,0.017578125-0.32080078125t0.087890625-0.28564453125q0.087890625-0.087890625,0.20654296875-0.18017578125t0.25927734375-0.09228515625q0.4482421875,0,0.703125,0.10107421875t0.2724609375,0.41748046875l0.03515625,0.2724609375q0.158203125-0.3779296875,0.421875-0.93603515625t0.61083984375-1.0634765625t0.7822265625-0.861328125t0.91845703125-0.35595703125q0.4482421875,0,0.73828125,0.421875t0.46142578125,1.07666015625t0.24169921875,1.458984375t0.0966796875,1.57763671875t0.03515625,1.41064453125t0.0615234375,0.96240234375q0.03515625,0.2724609375,0.11865234375,0.57568359375t0.08349609375,0.55810546875q0,0.0703125-0.10107421875,0.13623046875t-0.21533203125,0.10986328125t-0.23291015625,0.0703125t-0.17138671875,0.0263671875q-0.3427734375,0-0.48779296875-0.51416015625t-0.18017578125-1.28759765625t-0.03515625-1.67431640625t-0.0615234375-1.67431640625t-0.25048828125-1.28759765625t-0.60205078125-0.53173828125q-0.3779296875,0-0.7822265625,0.48779296875t-0.6943359375,1.29638671875q-0.28125,0.80859375-0.38671875,1.8369140625q-0.03515625,0.3251953125-0.03515625,0.650390625q0,0.7119140625,0.1494140625,1.423828125q0.017578125,0.123046875-0.10107421875,0.1845703125t-0.29443359375,0.0966796875t-0.35595703125,0.0439453125t-0.27685546875,0.0087890625q-0.3427734375,0-0.54931640625-0.24169921875t-0.32080078125-0.61962890625t-0.15380859375-0.84814453125t-0.04833984375-0.92724609375z"/></svg>
